<svg version="1.1" xmlns="http://www.w3.org/2000/svg" xmlns:xlink="http://www.w3.org/1999/xlink" width="12.18584" height="19.19865" viewBox="0,0,12.18584,19.19865"><g transform="translate(-233.90708,-170.40067)"><g data-paper-data="{&quot;isPaintingLayer&quot;:true}" fill="#333333" fill-rule="nonzero" stroke="none" stroke-width="1" stroke-linecap="butt" stroke-linejoin="miter" stroke-miterlimit="10" stroke-dasharray="" stroke-dashoffset="0" style="mix-blend-mode: normal"><path d="M245.57814,173.95355v4.2247c0,0.58796 -0.14892,1.16906 -0.4281,1.68582c0.43277,0.64795 0.71944,1.35416 0.85463,2.1061c0.49037,2.65261 -1.10258,5.16442 -3.7888,5.96677c-0.59436,0.17919 -1.22359,0.25889 -1.84674,0.2453c-0.0408,0.0528 -0.08488,0.10428 -0.12968,0.15468c-0.59436,0.71755 -1.44591,1.16912 -2.38264,1.24991l-0.24998,0.0125c-1.86387,0 -3.40566,-1.37895 -3.58725,-3.20602c-0.024,-0.24638 -0.04943,-0.71924 -0.07343,-1.42959c-0.0232,-0.69115 -0.03906,-1.61389 -0.03906,-2.74981c0,-0.86234 0.30659,-1.68016 0.85775,-2.32171c-0.48077,-1.10072 -0.63712,-2.3088 -0.45153,-3.52631c0.38157,-2.55022 2.26048,-4.49852 4.67311,-4.8481c0.16319,-0.0256 0.33774,-0.04047 0.52653,-0.04687c0.66795,-0.68395 1.56958,-1.07024 2.52951,-1.07024c1.95026,0 3.53569,1.59381 3.53569,3.55288zM240.50662,172.76145l-0.24842,0.31873l-0.40466,-0.01094c-0.0496,-0.0008 -0.09891,-0.00156 -0.1453,-0.00156c-0.18319,0 -0.34195,0.01121 -0.48434,0.03281c-1.71668,0.24878 -3.05111,1.65733 -3.32789,3.506c-0.16399,1.07432 0.02379,2.13351 0.54215,3.06385l0.3281,0.58746l-0.52496,0.42341c-0.46717,0.37757 -0.73589,0.93671 -0.73589,1.53427c0,1.11432 0.01586,2.01601 0.03906,2.69356c0.0224,0.65835 0.04322,1.09849 0.06562,1.32647c0.10319,1.02233 0.94241,1.76394 1.99673,1.76394l0.11562,-0.00469c0.50316,-0.0448 0.96706,-0.29125 1.30303,-0.69683c0.09519,-0.10879 0.16114,-0.20677 0.21874,-0.31717l0.25467,-0.4859l0.54527,0.0625c0.56716,0.064 1.16122,0.01324 1.71238,-0.15155h0.00156c1.88867,-0.56396 3.01166,-2.30907 2.67169,-4.14815c-0.12239,-0.68315 -0.40705,-1.28736 -0.87181,-1.85612l-0.40935,-0.49996l0.40153,-0.50465c0.27598,-0.34798 0.4281,-0.78033 0.4281,-1.2171v-4.22627c0.0008,-1.07672 -0.86788,-1.95299 -1.9358,-1.95299c-0.59916,0 -1.15826,0.27692 -1.53583,0.76088zM242.88614,173.80044v4.2997c0,0.41917 -0.32456,0.76642 -0.74214,0.79682c-0.41917,0.0296 -0.78838,-0.26759 -0.84838,-0.68276c-0.004,-0.0272 -0.46408,-2.72168 -1.69519,-2.5217c-0.65035,0.09279 -0.96681,0.68914 -1.0468,1.2171c-0.10879,0.71675 0.15979,1.74063 1.27491,2.26859c1.99186,0.94313 3.28028,1.82036 3.54506,3.27946c0.23358,1.28311 -0.5525,2.46145 -1.9108,2.86542c-0.97753,0.29118 -2.1988,0.12834 -3.24352,-0.6812c0.028,0.95753 0.06326,1.38024 0.06406,1.38584c0.0392,0.43997 -0.28342,0.82793 -0.72339,0.86713c-0.0272,0.0024 -0.05256,0.00469 -0.07656,0.00469c-0.40877,0 -0.75686,-0.31214 -0.79526,-0.72651c-0.004,-0.0472 -0.10312,-1.16936 -0.10312,-3.97316c0,-0.38077 0.26857,-0.70913 0.64214,-0.78432c0.37517,-0.068 0.74726,0.12379 0.89525,0.47497c0.71195,1.69108 1.96027,2.17668 2.88261,1.8983c0.43037,-0.12799 0.89689,-0.47808 0.79369,-1.04524c-0.12319,-0.67915 -0.86899,-1.27382 -2.65606,-2.12016c-1.57029,-0.74395 -2.4229,-2.29536 -2.17172,-3.95285c0.20799,-1.3775 1.15028,-2.38237 2.40139,-2.56076c0.47037,-0.0664 1.20918,-0.03872 1.91393,0.54684v-0.85619c0,-0.44237 0.35837,-0.79994 0.79994,-0.79994c0.44157,0 0.79994,0.35757 0.79994,0.79994z"/></g></g></svg>